<?xml version="1.0" encoding="UTF-8" standalone="no"?><svg width="246" height="122" fill="none" xmlns="http://www.w3.org/2000/svg"><g clip-path="url(#clip0)"><path d="M245.637 22.963c0 7.871-6.379 14.368-14.384 14.368h-33.52c0 10.994-8.881 19.864-19.887 19.864h-15.134c-6.129 0-11.132 4.998-11.132 11.12 0 6.121 5.003 11.119 11.132 11.119h61.537c6.379 0 11.632 5.247 11.632 11.619 0 6.371-5.253 11.619-11.632 11.619h-28.017c-9.881 0-18.011 7.995-17.886 17.99l-121.323.25.375-21.239H14.247C6.617 99.548.363 93.302.363 85.68c0-7.746 6.254-13.867 13.884-13.867h33.395c7.13 0 12.758-5.747 12.758-12.744 0-7.12-5.754-12.743-12.758-12.743h-3.127c-10.381 0-18.761-8.37-18.761-18.74s8.38-18.74 18.761-18.74h186.738c8.005-.25 14.384 6.246 14.384 14.117z" fill="#EAF3FA"/><path d="M178.846 71.688l10.006 9.995v34.856c0 1.625-1.25 2.874-2.876 2.874h-29.768c-1.626 0-2.877-1.249-2.877-2.874V74.561c0-1.624 1.251-2.873 2.877-2.873h22.638z" fill="white"/><path d="M178.846 81.683v-9.995l10.006 9.995h-10.006z" fill="#5FB0E5"/><path d="M188.852 81.683h-9.005c-.501 0-1.001-.5-1.001-1v-8.995" stroke="#0686D8" stroke-width="1.5" stroke-miterlimit="10"/><path d="M153.331 87.93V74.56c0-1.624 1.251-2.873 2.877-2.873h22.638l10.006 9.995v34.856c0 1.625-1.25 2.874-2.876 2.874h-29.768" stroke="#0686D8" stroke-width="1.5" stroke-miterlimit="10"/><path d="M161.961 69.19h22.307l9.838 9.826v34.65c0 1.347-1.027 2.373-2.377 2.373h-29.768c-1.35 0-2.377-1.026-2.377-2.373V71.563c0-1.347 1.027-2.374 2.377-2.374z" fill="white" stroke="#2C3135"/><path d="M184.6 78.684v-9.87l10.006 9.87H184.6z" fill="#5FB0E5"/><path d="M194.606 78.684H185.6c-.5 0-1-.5-1-1V68.69" fill="white"/><path d="M194.606 78.684H185.6c-.5 0-1-.5-1-1V68.69" stroke="#2C3135" stroke-width="1.5" stroke-miterlimit="10"/><path d="M189.853 83.557h-25.39M189.853 89.304h-25.39M189.853 94.926h-25.39M189.853 100.548h-25.39" stroke="#0686D8" stroke-width="1.5" stroke-miterlimit="10"/><path d="M165.088 68.814H184.6l10.006 9.995v34.857c0 1.624-1.251 2.874-2.877 2.874h-1.251" stroke="#2C3135" stroke-width="1.5" stroke-miterlimit="10"/><path d="M190.478 73.187l10.006 9.995v34.857c0 1.624-1.25 2.873-2.876 2.873h-29.769c-1.625 0-2.876-1.249-2.876-2.873V75.936c0-1.625 1.251-2.874 2.876-2.874h22.639v.125z" fill="white"/><path d="M190.478 83.057v-9.87l10.006 9.87h-10.006z" fill="#F3786E"/><path d="M200.484 83.057h-9.005c-.501 0-1.001-.5-1.001-1v-8.995M195.606 87.93h-25.39M195.606 93.676h-25.39M187.351 99.299h-17.135M187.351 104.921h-17.135" stroke="#2C3135" stroke-width="1.5" stroke-miterlimit="10"/><path d="M164.963 113.666v-37.73c0-1.625 1.251-2.874 2.876-2.874h22.639l10.006 9.995v7.371" stroke="#2C3135" stroke-width="1.5" stroke-miterlimit="10"/><path d="M100.799 120.787H40.387c-1.25 0-2.376-.999-2.376-2.374V33.708c0-1.25 1-2.374 2.377-2.374h60.286c1.251 0 2.376 1 2.376 2.374v84.705c0 1.375-1 2.374-2.251 2.374z" fill="white"/><path d="M103.175 31.458h-65.04v22.239h65.04V31.457z" fill="#F3786E"/><path d="M60.525 42.328a8.11 8.11 0 01-8.13 8.12c-4.628.126-8.255-3.622-8.255-8.12a8.11 8.11 0 018.13-8.12c4.627 0 8.255 3.623 8.255 8.12z" fill="white"/><path d="M49.518 115.29h-.625v-3.498h.625v3.498zm0-6.996h-.625v-3.499h.625v3.499zm0-6.997h-.625v-3.498h.625v3.498zm0-6.996h-.625v-3.498h.625V94.3zm0-6.996h-.625v-3.499h.625v3.499zm0-6.997h-.625V76.81h.625v3.498zm0-6.996h-.625v-3.498h.625v3.498zm0-6.996h-.625v-3.499h.625v3.499z" fill="#FFADA0"/><path d="M51.394 106.295c0 1.249-1 2.124-2.126 2.124-1.25 0-2.126-1-2.126-2.124 0-1.25 1-2.124 2.126-2.124 1.126-.125 2.126.874 2.126 2.124z" fill="#FFADA0"/><path d="M38.136 120.912V33.708c0-1.25 1-2.374 2.376-2.374h60.286c1.251 0 2.377 1 2.377 2.374v30.359M38.136 53.697h64.915" stroke="#2C3135" stroke-width="1.5" stroke-miterlimit="10"/><path d="M51.394 85.43c0 1.25-1 2.125-2.126 2.125-1.25 0-2.126-1-2.126-2.124 0-1.25 1-2.124 2.126-2.124s2.126.874 2.126 2.124zM51.394 64.567c0 1.249-1 2.123-2.126 2.123-1.25 0-2.126-1-2.126-2.123 0-1.25 1-2.124 2.126-2.124s2.126.874 2.126 2.124z" fill="#FFADA0"/><path d="M55.522 64.567h40.524M55.522 83.806h40.524M55.522 87.555h40.524M55.522 91.303h40.524M55.522 104.046h40.65M55.522 107.669h40.524M55.522 111.167h27.892M55.522 95.05h15.134M55.522 68.315h40.524M55.522 72.188h40.524M55.522 75.936h15.134" stroke="#2C3135" stroke-width="1.5" stroke-miterlimit="10"/><path d="M179.972 4.223h5.378M182.724 6.847V1.6M16.748 61.568h5.378M19.5 64.192v-5.247M224.999 59.07l3.753-3.749M228.752 59.07l-3.753-3.749M72.032 20.714l3.752-3.873M75.784 20.714l-3.752-3.873" stroke="#2C3135" stroke-width="1.5" stroke-miterlimit="10" stroke-linecap="round"/><path d="M98.673 20.715h63.413M170.216 62.443h44.777M8.243 44.952h22.389M145.326 4.223h21.763M173.343 4.223h-4.378" stroke="#2C3135" stroke-width="1.5" stroke-miterlimit="10"/><path d="M212.242 50.449a2.374 2.374 0 01-2.377 2.374c-1.251 0-2.376-1-2.376-2.374 0-1.25 1-2.374 2.376-2.374 1.376.125 2.377 1.125 2.377 2.374zM44.14 17.716c0 1.25-1 2.374-2.377 2.374-1.25 0-2.376-1-2.376-2.374 0-1.25 1-2.374 2.376-2.374a2.373 2.373 0 012.377 2.374zM150.454 51.698c0 .625-.5 1.25-1.251 1.25-.625 0-1.25-.5-1.25-1.25 0-.624.5-1.249 1.25-1.249.751 0 1.251.625 1.251 1.25zM109.554 5.347c0 .625-.5 1.25-1.25 1.25-.626 0-1.251-.5-1.251-1.25 0-.624.5-1.249 1.251-1.249.75.125 1.25.625 1.25 1.25zM31.883 66.19c0 .625-.5 1.25-1.251 1.25-.626 0-1.251-.5-1.251-1.25 0-.749.5-1.249 1.25-1.249.751.125 1.252.625 1.252 1.25z" fill="#2C3135"/><path d="M25.128 120.787h204.999M19.5 120.787h3.377M232.003 120.787h7.63" stroke="#2C3135" stroke-width="1.5" stroke-miterlimit="10"/><g opacity=".3" fill="#0686D8"><path opacity=".3" d="M104.051 59.944c-.125.5-.25 1-.25 1.5v2.623h.25v-4.123zM103.05 118.413V65.316H73.658v55.471H100.799c1.251 0 2.251-.999 2.251-2.374z"/></g><path d="M162.962 66.19H77.035v54.597h85.927V66.191z" fill="#F3786E"/><path opacity=".3" d="M162.894 67.036H77.196v20.67h85.698v-20.67z" fill="#0686D8"/><path d="M162.894 66.298H77.196v22.146h85.698V66.298z" fill="#FFADA0"/><path d="M123.313 82.557h-6.754v10.995h6.754V82.556z" fill="white"/><path d="M107.178 66.566v-5.123a4.215 4.215 0 014.252-4.248h16.886a4.215 4.215 0 014.252 4.248v5.123" stroke="#2C3135" stroke-width="1.5" stroke-miterlimit="10"/><path d="M77.035 120.787V66.191h85.927v47.475" stroke="#2C3135" stroke-width="1.5" stroke-miterlimit="10"/><path d="M122.437 116.664h-4.878v2.999h4.878v-2.999z" fill="#F3786E"/><path d="M122.437 116.664h-4.878v2.999h4.878v-2.999zM175.97 118.164h4.002M145.076 113.041h-22.389v2.874" stroke="#2C3135" stroke-width="1.5" stroke-miterlimit="10"/><path d="M171.717 120.787h-49.155v-5.247h49.155l6.504 2.499c.125 0 .125.25 0 .25l-6.504 2.498z" fill="#FFADA0"/><path d="M171.842 115.54h-49.28v5.247h49.28v-5.247z" fill="white"/><path d="M165.714 115.54h-16.636v5.247h16.636v-5.247z" fill="#F3786E"/><path d="M165.714 115.54h-16.636v2.624h16.636v-2.624z" fill="#FFADA0"/><path d="M171.717 120.787h-49.155v-5.247h49.155l6.504 2.499c.125 0 .125.25 0 .25l-6.504 2.498zM149.078 115.915v4.497M164.838 115.915v4.497M171.717 115.915v4.497" stroke="#2C3135" stroke-width="1.5" stroke-miterlimit="10"/><path d="M224.999 92.802h-26.891v8.121c0 5.747 2.126 11.369 6.129 15.616v4.123h14.634v-4.123c3.877-4.247 6.128-9.869 6.128-15.616v-8.121z" fill="#FFADA0"/><path d="M219.121 92.802v8.121c0 5.747-2.127 11.369-6.129 15.616v4.123h3.127v-4.123c3.877-4.247 6.129-9.869 6.129-15.616v-8.121h-3.127z" fill="#F3786E"/><path d="M224.124 105.92c.375-1.624.5-3.248.5-4.997v-8.121h-26.891v8.121c0 5.747 2.126 11.369 6.128 15.616v4.123h14.634v-4.123c.751-.874 1.501-1.749 2.127-2.623M221.622 112.542a25.752 25.752 0 001.876-4.248" stroke="#2C3135" stroke-width="1.5" stroke-miterlimit="10"/><path d="M199.234 108.294h-4.378c-3.127 0-5.754-2.624-5.754-5.747 0-3.124 2.627-5.747 5.754-5.747h2.877M207.864 89.928v-1.624a4.215 4.215 0 014.252-4.248h4.003c.875 0 1.501-.75 1.501-1.499 0-.874-.751-1.499-1.501-1.499h-12.508c-.75 0-1.376-.625-1.376-1.374 0-.75.626-1.375 1.376-1.375h5.253M211.116 78.434h4.503c.875 0 1.626-.75 1.626-1.624 0-.874-.751-1.624-1.626-1.624h-11.632c-1.001 0-1.752-.75-1.752-1.749 0-1 .751-1.75 1.752-1.75h16.885" stroke="#2C3135" stroke-width="1.5" stroke-miterlimit="10"/></g><defs><clipPath id="clip0"><path fill="white" d="M.363.6h245.273v121.062H.363z"/></clipPath></defs></svg>